<?xml version="1.0" standalone="no"?>
<!DOCTYPE svg PUBLIC "-//W3C//DTD SVG 20010904//EN"
 "http://www.w3.org/TR/2001/REC-SVG-20010904/DTD/svg10.dtd">
<svg version="1.0" xmlns="http://www.w3.org/2000/svg"
 width="400.000000pt" height="400.000000pt" viewBox="0 0 400.000000 400.000000"
 preserveAspectRatio="xMidYMid meet">
<metadata>
Created by potrace 1.11, written by Peter Selinger 2001-2013
</metadata>
<g transform="translate(0.000000,400.000000) scale(0.100000,-0.100000)"
fill="#000000" stroke="none">
<path d="M1095 2485 c-6 -50 -9 -55 -32 -55 -19 0 -24 -4 -19 -16 3 -9 6 -18
6 -21 0 -3 7 0 15 7 22 18 32 5 39 -54 4 -29 14 -62 22 -72 14 -18 15 -17 9
10 -25 115 -25 116 5 116 31 0 40 -15 40 -63 0 -46 19 -107 35 -113 7 -3 27 2
44 10 37 19 41 20 41 3 0 -8 9 -22 20 -32 22 -20 26 -9 9 27 -6 15 -7 32 -1
48 8 22 9 20 16 -20 9 -55 21 -70 58 -70 21 0 39 10 59 31 l30 32 -11 -28
c-20 -52 11 -72 58 -40 20 15 23 14 51 -17 31 -34 38 -28 22 15 -5 14 -7 35
-3 48 5 20 8 16 17 -26 9 -39 16 -51 32 -53 14 -2 23 4 28 17 3 12 18 35 32
51 20 25 23 33 13 45 -17 20 -30 19 -57 -7 -13 -12 -23 -16 -23 -10 0 7 -6 12
-14 12 -8 0 -16 7 -20 15 -7 20 -58 19 -96 0 -27 -14 -30 -14 -30 0 0 23 -69
50 -92 36 -10 -6 -20 -11 -23 -11 -10 0 -5 36 12 82 9 26 14 51 10 54 -12 13
-37 -19 -48 -61 -10 -39 -12 -41 -40 -37 -24 4 -38 -2 -64 -28 l-33 -32 -6 29
c-4 15 -2 52 4 82 10 53 5 121 -9 121 -4 0 -15 -19 -26 -42 -14 -30 -26 -43
-40 -43 -17 0 -20 7 -20 52 0 71 -11 76 -20 8z m355 -230 c0 -14 -57 -38 -71
-29 -17 10 -9 25 23 39 35 14 48 12 48 -10z"/>
<path d="M2570 2403 c-22 -79 -35 -192 -22 -205 6 -6 14 -9 18 -6 8 9 52 232
47 241 -11 19 -33 3 -43 -30z"/>
<path d="M2357 2293 c-19 -18 1 -164 24 -179 18 -11 19 1 4 51 -21 67 -18 87
6 42 22 -42 31 -41 49 3 7 16 15 30 19 30 3 0 17 -16 30 -35 23 -34 51 -47 51
-24 0 15 -69 109 -81 109 -5 0 -16 -11 -25 -25 l-17 -26 -18 31 c-19 30 -30
36 -42 23z"/>
<path d="M2088 2271 c-52 -7 -78 -24 -58 -36 6 -4 31 -2 56 5 24 7 55 10 69 8
22 -5 44 7 33 17 -9 9 -58 12 -100 6z"/>
<path d="M2253 2260 c-37 -22 -60 -54 -65 -90 -4 -33 23 -38 63 -10 l30 22 20
-21 c26 -28 43 -27 34 2 -9 29 -9 45 0 85 7 30 6 32 -21 32 -16 0 -43 -9 -61
-20z m27 -34 c0 -2 -8 -10 -17 -17 -16 -13 -17 -12 -4 4 13 16 21 21 21 13z"/>
<path d="M1890 2205 c0 -74 14 -84 54 -39 l23 27 22 -37 c14 -23 30 -36 40
-34 24 5 25 35 2 41 -11 2 -27 21 -35 41 -17 40 -22 43 -46 21 -16 -14 -18
-13 -23 15 -4 18 -13 30 -22 30 -12 0 -15 -13 -15 -65z"/>
<path d="M2547 2174 c-16 -16 -6 -35 16 -32 12 2 22 10 22 18 0 16 -26 25 -38
14z"/>
<path d="M1492 2124 c-29 -14 -68 -46 -88 -70 -32 -38 -36 -49 -31 -81 4 -20
18 -48 32 -62 24 -24 32 -26 120 -26 69 0 95 -3 95 -12 0 -17 35 -16 70 2 27
14 29 13 44 -10 9 -14 23 -25 31 -25 17 0 20 16 4 25 -6 5 -8 27 -3 61 6 52 5
54 -17 54 -13 0 -53 -14 -87 -30 -49 -23 -78 -30 -123 -30 -52 0 -129 20 -129
34 0 22 43 96 58 100 11 4 23 13 26 21 3 9 19 15 41 15 28 0 35 4 35 19 0 38
-23 42 -78 15z"/>
<path d="M1935 2008 c4 -18 9 -40 11 -49 3 -10 -6 -23 -21 -33 -24 -16 -25
-16 -25 9 0 42 -33 32 -50 -16 -20 -54 -36 -50 -31 7 3 52 -9 53 -34 3 -13
-25 -14 -34 -3 -57 12 -24 20 -27 66 -30 50 -3 52 -2 52 23 l0 26 35 -26 c47
-37 71 -30 67 18 l-3 37 43 0 c33 0 39 -3 30 -12 -7 -7 -12 -25 -12 -40 0 -34
21 -37 65 -8 l30 19 26 -25 c29 -28 48 -18 27 15 -9 14 -9 28 -2 53 20 63 -3
73 -77 35 -34 -17 -55 -21 -93 -17 -50 5 -55 9 -76 68 -7 17 -17 32 -22 32 -5
0 -7 -14 -3 -32z m25 -118 c0 -5 -4 -10 -10 -10 -5 0 -10 5 -10 10 0 6 5 10
10 10 6 0 10 -4 10 -10z"/>
<path d="M2557 2009 c-10 -6 -27 -25 -38 -42 -11 -19 -19 -25 -19 -16 0 9 -9
24 -20 34 -42 38 -105 -20 -116 -107 -7 -54 20 -111 54 -116 23 -4 24 -1 20
52 -2 47 0 57 15 62 10 3 23 17 30 31 11 24 11 24 19 4 4 -12 14 -24 22 -27
18 -7 126 41 126 55 0 14 -6 14 -38 -3 -54 -27 -72 -29 -72 -7 0 11 4 23 10
26 6 3 7 -1 4 -9 -10 -27 22 -18 34 9 25 54 11 78 -31 54z m-91 -53 c6 -15
-12 -56 -24 -56 -4 0 -13 9 -19 20 -10 15 -10 22 3 35 19 19 33 19 40 1z m-57
-141 c0 -17 -2 -16 -14 7 -10 17 -12 38 -8 60 l7 33 7 -40 c5 -22 8 -49 8 -60z"/>
<path d="M2755 1978 c-55 -21 -100 -56 -56 -43 l24 7 -7 -203 c-3 -112 -11
-235 -16 -273 -6 -38 -8 -71 -6 -74 8 -7 104 29 117 45 11 13 10 14 -11 11
-24 -3 -25 0 -28 57 -5 93 15 427 28 459 6 16 9 30 8 31 -2 2 -25 -6 -53 -17z"/>
<path d="M1041 1969 c-11 -12 -21 -34 -21 -48 l0 -26 26 33 c34 43 79 44 144
2 65 -41 94 -75 87 -100 -7 -26 2 -25 38 5 l30 25 -39 35 c-53 47 -137 87
-195 93 -41 4 -51 1 -70 -19z"/>
<path d="M2927 1845 c-71 -49 -121 -198 -98 -292 15 -60 36 -83 73 -83 40 0
65 15 83 51 l16 30 -24 -16 c-57 -37 -99 18 -101 133 -1 101 47 184 92 156 30
-19 25 -49 -17 -98 -23 -26 -41 -49 -41 -52 0 -26 96 105 102 139 6 29 -12 57
-35 57 -7 0 -29 -11 -50 -25z"/>
<path d="M1011 1764 c0 -11 3 -14 6 -6 3 7 2 16 -1 19 -3 4 -6 -2 -5 -13z"/>
<path d="M2555 1731 c-139 -35 -213 -85 -236 -161 -15 -49 -6 -85 31 -121 23
-23 37 -29 73 -29 38 0 45 -3 50 -22 2 -13 7 -30 11 -39 5 -12 -4 -18 -43 -28
-130 -33 -207 -135 -156 -208 35 -49 162 -56 251 -13 76 37 127 128 110 196
-4 14 -27 47 -51 73 -25 27 -45 52 -45 56 0 4 16 30 37 57 47 64 57 135 25
178 l-21 28 42 26 c37 22 39 25 17 25 -14 0 -56 -8 -95 -18z m-18 -90 c31 -45
32 -128 3 -159 -64 -68 -145 -15 -145 95 0 48 4 58 29 79 40 35 83 30 113 -15z
m34 -350 c52 -52 33 -117 -45 -152 -99 -45 -187 -5 -176 81 3 25 54 70 96 85
61 22 92 19 125 -14z"/>
<path d="M1484 1701 c-74 -34 -108 -113 -84 -200 44 -165 225 -241 340 -145
43 37 60 75 60 134 0 95 -72 185 -171 214 -68 20 -95 20 -145 -3z m146 -39
c83 -62 114 -253 48 -304 -86 -66 -199 43 -206 199 -4 70 -3 73 27 104 28 27
37 31 69 25 20 -3 48 -14 62 -24z"/>
<path d="M2034 1680 c-138 -28 -216 -116 -200 -224 15 -99 101 -166 215 -166
141 0 246 113 227 243 -17 111 -118 172 -242 147z m49 -34 c71 -29 116 -128
103 -221 -12 -76 -70 -121 -141 -107 -69 13 -133 132 -122 229 5 49 27 79 72
99 38 17 49 17 88 0z"/>
<path d="M1030 1624 c0 -49 5 -68 29 -106 41 -65 84 -93 185 -122 48 -14 92
-26 97 -26 5 0 9 35 9 78 0 45 5 83 11 89 13 13 -28 26 -115 39 -57 8 -58 -10
-1 -20 l35 -7 0 -64 c0 -71 -1 -72 -62 -55 -72 20 -127 83 -164 188 l-24 67 0
-61z"/>
</g>
</svg>
